<svg id="Layer_1" data-name="Layer 1" xmlns="http://www.w3.org/2000/svg" viewBox="0 0 150.68 186.99"><defs><style>.cls-1{fill:#fff;}</style></defs><path class="cls-1" d="M88.27,57.49A5,5,0,0,0,93,61a7.72,7.72,0,0,0,1.5-.2c20.4-6.3,34.7-21.8,35.3-22.5a5,5,0,0,0-7.3-6.7c-.1.1-13.1,14.2-30.9,19.7A5,5,0,0,0,88.27,57.49Z" transform="translate(-20.47 -19.11)"/><path class="cls-1" d="M82.37,64.69a5,5,0,0,0,3.4-6.1,5,5,0,0,0-6.1-3.4,59.84,59.84,0,0,0-20.5,11.6c-9.3,7.9-20.4,22.4-20.5,46.2a5,5,0,0,0,4.9,5h0a5.06,5.06,0,0,0,5-4.9C48.77,75,81,65.09,82.37,64.69Z" transform="translate(-20.47 -19.11)"/><path class="cls-1" d="M61.37,165.29a4.51,4.51,0,0,0,2.5.7,5,5,0,0,0,2.5-9.3c-46.8-27.1-26.6-71.3-25.7-73.2l.1-.2c.1-.3,12.7-28.9,32.5-33.1,27.8-5.9,38-20.6,38.4-21.2a5,5,0,0,0-8.3-5.5c-.1.1-8.7,12.1-32.2,17-24.5,5.2-38.5,36.5-39.5,38.8a73.83,73.83,0,0,0-5.9,30.8C26.27,126.19,32.77,148.69,61.37,165.29Z" transform="translate(-20.47 -19.11)"/><path class="cls-1" d="M87.27,187.89a73.69,73.69,0,0,0,20-5.7,35.11,35.11,0,0,1-4.8-8.7,66.47,66.47,0,0,1-16.4,4.6c-30.1,3.5-47.8-20.3-49-21.9-2.5-3.8-6.5-11.1-6.7-14.9a5,5,0,1,0-9.9.5c.4,7.8,7.5,18.7,8.4,20l.1.1c.8,1.2,19.1,26.5,51,26.5C82.37,188.29,84.77,188.19,87.27,187.89Z" transform="translate(-20.47 -19.11)"/><path class="cls-1" d="M118.07,196.29a.1.1,0,0,0,.1-.1l-.1.1Z" transform="translate(-20.47 -19.11)"/><path class="cls-1" d="M93.07,195.09c-26,4.9-45-6.8-49.1-11.7a5,5,0,0,0-7.7,6.3c5.1,6.1,21.4,16.4,44.1,16.4a73.07,73.07,0,0,0,14.4-1.4,80.91,80.91,0,0,0,19.7-6.8l-3.3-9.4A68.32,68.32,0,0,1,93.07,195.09Z" transform="translate(-20.47 -19.11)"/><path class="cls-1" d="M103.77,91.89a123.85,123.85,0,0,1-10.1,18.3c-7.9,11.8-11.6,12.2-11.5,12.2-3.5-.8-3.9-4.7-3.9-5.5.1-1.2,1.3-13,17.2-22.2a5,5,0,1,0-5-8.6c-21.5,12.4-22.2,29.8-22.2,30.6,0,4.3,2.4,13.1,11.5,15.3a7.49,7.49,0,0,0,2.1.2c14.7,0,30.1-34.7,31-36.7,2.1-3.9,22.1-18.4,39.4-29.6a5,5,0,0,0,1.5-6.8,5.07,5.07,0,0,0-6.8-1.5C132.07,67.39,106.67,84.69,103.77,91.89Zm9.2,3.7Z" transform="translate(-20.47 -19.11)"/><path class="cls-1" d="M41.47,50.49a4.8,4.8,0,0,0,3.7-1.7C57.87,34.09,82.77,29,83,28.89a4.94,4.94,0,0,0-1.9-9.7c-1.2.2-28.4,5.8-43.4,23.1a4.93,4.93,0,0,0,.5,7A5.16,5.16,0,0,0,41.47,50.49Z" transform="translate(-20.47 -19.11)"/><path class="cls-1" d="M167,132.79a5.26,5.26,0,0,0-7.2-.2s-.7.5-.9.7l1.8,4.8h0c.7,1.1,2.1,2.1,2.8,3.1l.9-.7s.3.4.7,1c1-1,1.7-1.6,1.9-1.8A4.89,4.89,0,0,0,167,132.79Z" transform="translate(-20.47 -19.11)"/><path class="cls-1" d="M169.37,113.29a5,5,0,0,0-6.7-2.1,89.73,89.73,0,0,0-16.2,11.4c1.4.4,2.9.9,4.4,1.4l2.8-4.1,2.6,7.4a67.53,67.53,0,0,1,11-7.3A5.07,5.07,0,0,0,169.37,113.29Z" transform="translate(-20.47 -19.11)"/><path class="cls-1" d="M116.67,125.39a81,81,0,0,0,4.9-10.2c1.5-2.5,14.1-22.7,38.3-32.2a4.94,4.94,0,1,0-3.6-9.2c-28.9,11.3-42.9,35.8-43.5,36.8l-.3.6c-8.9,22.5-22.6,26.3-23.1,26.5l-.5.1c-9.2,3.2-16.3,3.1-21.2-.2-7-4.8-7.9-15.2-8-16.8,2.4-30.6,27.7-39.7,42.8-45.2,2.4-.9,4.5-1.6,6.3-2.4,13.3-5.7,33.7-22.1,34.6-22.8a5,5,0,0,0-6.3-7.7c-.2.2-20.2,16.2-32.2,21.4-1.5.7-3.5,1.4-5.7,2.2-16.3,5.9-46.5,16.9-49.3,54.1v.6c0,.7.6,16.8,12.3,24.8a25.3,25.3,0,0,0,14.8,4.3,46.29,46.29,0,0,0,15.1-2.8,31.48,31.48,0,0,0,8.3-4,53.43,53.43,0,0,1,3.5-6.6A38.77,38.77,0,0,1,116.67,125.39Z" transform="translate(-20.47 -19.11)"/><path class="cls-1" d="M97.27,154.19a47.27,47.27,0,0,1-21.4,4,5,5,0,1,0-.9,9.9c.2,0,1.3.1,3,.1a60.5,60.5,0,0,0,19.5-3.4A31.11,31.11,0,0,1,97.27,154.19Z" transform="translate(-20.47 -19.11)"/><path class="cls-1" d="M140,121.09c3.5-4.7,6.3-8,7.7-8.7l.5-.2,17-10.5a4.94,4.94,0,1,0-5.2-8.4l-16.3,10.1c-4.3,2.1-10.4,9.9-16.1,18.1A36,36,0,0,1,140,121.09Z" transform="translate(-20.47 -19.11)"/><path class="cls-1" d="M165.07,141.59c-.4-.6-.7-1-.7-1l-.9.7a6.73,6.73,0,0,1,.7,1.1C164.57,142.09,164.77,141.79,165.07,141.59Z" transform="translate(-20.47 -19.11)"/><path class="cls-1" d="M164.27,142.49h0c2.9,4.4,12.1,21.3-.8,41.5,0,0-15.6,23.4-45.3,12.2l-2.8,3.7-5.4-15.3,16.2.7-2.8,3.7s20.5,8.7,35.5-8.6c-1.3-1.3-5.1-4.2-13.7-5,0,0-1.1-1.5,2.1-4,0,0,.5-1.7-3-2.1,0,0,2.6-1.5,1.9-6.5,0,0,7.8-1.9,8.7-5.1,0,0,.1-2.8-7.8-4.2,0,0-.7-7.2-2.5-9.8-.8-1-2.7-.3-2.7-.3a16.56,16.56,0,0,1-6.7,1.1s-5-.1-6.8-1.1c0,0-1.9-.7-2.7.3h0c-1.8,2.6-2.5,9.8-2.5,9.8-8,1.3-7.8,4.2-7.8,4.2,1,3.2,8.7,5.1,8.7,5.1-.6,5,1.9,6.5,1.9,6.5-3.5.4-3,2.1-3,2.1,3.2,2.5,2.1,4,2.1,4-11.3,1.2-14.3,5.7-14.3,5.7-7.6-7.7-7.5-21-7.5-21,1.7-14.1,8.6-21.5,15.5-25.4,12.8-6.4,25.8-.9,25.8-.9l-2.8,3.7,14.2.6h2.1l-1.1-3-.3-.7-4.1-11.7-2.8,3.7c-29.7-11.2-45.3,12.2-45.3,12.2-15,23.6,0,42.3,0,42.3h0a36.64,36.64,0,0,0,4.6,5.8l5.7,16,3.1-4.2c30.6,11.6,46.2-12.7,46.2-12.7C179.87,161.59,164.27,142.49,164.27,142.49Z" transform="translate(-20.47 -19.11)"/></svg>