<?xml version="1.0" encoding="utf-8"?>
<svg version="1.1" id="Layer_1" xmlns="http://www.w3.org/2000/svg" xmlns:xlink="http://www.w3.org/1999/xlink" x="0px" y="0px"
	 viewBox="0 0 191.5 227.9" style="enable-background:new 0 0 191.5 227.9;" xml:space="preserve">
<style type="text/css">
	.st0{fill:url(#SVGID_2_);}
	.st1{clip-path:url(#SVGID_4_);}
	.st2{fill:url(#artboard_1_1_);}
	.st3{fill:#FFFFFF;}
</style>
<g>
	<g>
		
			<linearGradient id="SVGID_2_" gradientUnits="userSpaceOnUse" x1="94.332" y1="270.1876" x2="96.6204" y2="91.6924" gradientTransform="matrix(1 0 0 -1 0 274.589)">
			<stop  offset="0" style="stop-color:#00A89E"/>
			<stop  offset="0" style="stop-color:#00A89E"/>
			<stop  offset="1" style="stop-color:#27AADB"/>
		</linearGradient>
		<rect id="SVGID_1_" class="st0" width="191.5" height="227.9"/>
	</g>
	<g>
		<defs>
			<rect id="SVGID_3_" width="191.5" height="227.9"/>
		</defs>
		<clipPath id="SVGID_4_">
			<use xlink:href="#SVGID_3_"  style="overflow:visible;"/>
		</clipPath>
		<g id="Banner" class="st1">
			<g>
				
					<linearGradient id="artboard_1_1_" gradientUnits="userSpaceOnUse" x1="96.1206" y1="271.1246" x2="95.4432" y2="76.4274" gradientTransform="matrix(1 0 0 -1 0 274.589)">
					<stop  offset="0" style="stop-color:#00A89E"/>
					<stop  offset="0" style="stop-color:#00A89E"/>
					<stop  offset="1" style="stop-color:#27AADB"/>
				</linearGradient>
				<rect id="artboard_1" class="st2" width="191.5" height="227.9"/>
			</g>
		</g>
	</g>
</g>
<g>
	<g>
		<path class="st3" d="M88.3,57.5C89,59.6,90.9,61,93,61c0.5,0,1-0.1,1.5-0.2c20.4-6.3,34.7-21.8,35.3-22.5c1.8-2,1.7-5.1-0.3-7
			c-2-1.8-5.1-1.7-7,0.3c-0.1,0.1-13.1,14.2-30.9,19.7C89,52.1,87.5,54.9,88.3,57.5z"/>
		<path class="st3" d="M82.4,64.7c2.6-0.8,4.1-3.5,3.4-6.1c-0.8-2.6-3.5-4.2-6.1-3.4c-0.4,0.1-10.4,3-20.5,11.6
			c-9.3,7.9-20.4,22.4-20.5,46.2c0,2.7,2.2,5,4.9,5l0,0c2.7,0,4.9-2.2,5-4.9C48.8,75,81,65.1,82.4,64.7z"/>
		<path class="st3" d="M61.4,165.3c0.8,0.5,1.6,0.7,2.5,0.7c1.7,0,3.4-0.9,4.3-2.5c1.4-2.4,0.6-5.4-1.8-6.8
			c-46.8-27.1-26.6-71.3-25.7-73.2l0.1-0.2c0.1-0.3,12.7-28.9,32.5-33.1c27.8-5.9,38-20.6,38.4-21.2c1.5-2.3,0.9-5.3-1.4-6.9
			c-2.3-1.5-5.3-0.9-6.9,1.4c-0.1,0.1-8.7,12.1-32.2,17C46.7,45.7,32.7,77,31.7,79.3c-0.6,1.4-6.4,14.2-5.9,30.8
			C26.3,126.2,32.8,148.7,61.4,165.3z"/>
		<path class="st3" d="M87.3,187.9c6.5-0.8,13.3-2.8,20-5.7c-2-2.6-3.6-5.6-4.8-8.7c-5.6,2.3-11.1,3.9-16.4,4.6
			c-30.1,3.5-47.8-20.3-49-21.9c-2.5-3.8-6.5-11.1-6.7-14.9c-0.1-2.7-2.5-4.8-5.2-4.7c-2.7,0.1-4.8,2.5-4.7,5.2
			c0.4,7.8,7.5,18.7,8.4,20l0.1,0.1c0.8,1.2,19.1,26.5,51,26.5C82.4,188.3,84.8,188.2,87.3,187.9z"/>
		<path class="st3" d="M118.1,196.3c0,0,0.1,0,0.1-0.1C118.2,196.2,118.2,196.2,118.1,196.3L118.1,196.3z"/>
		<path class="st3" d="M93.1,195.1c-26,4.9-45-6.8-49.1-11.7c-1.7-2.1-4.9-2.4-7-0.7c-2.1,1.7-2.4,4.9-0.7,7
			c5.1,6.1,21.4,16.4,44.1,16.4c4.6,0,9.4-0.4,14.4-1.4c6.5-1.2,13.2-3.7,19.7-6.8l-3.3-9.4C105.3,191.6,99.1,193.9,93.1,195.1z"/>
		<path class="st3" d="M103.8,91.9c-1.3,3.2-5.4,11.3-10.1,18.3c-7.9,11.8-11.6,12.2-11.5,12.2c-3.5-0.8-3.9-4.7-3.9-5.5
			c0.1-1.2,1.3-13,17.2-22.2c2.4-1.4,3.2-4.4,1.8-6.8c-1.4-2.4-4.4-3.2-6.8-1.8C69,98.5,68.3,115.9,68.3,116.7
			c0,4.3,2.4,13.1,11.5,15.3c0.7,0.2,1.4,0.2,2.1,0.2c14.7,0,30.1-34.7,31-36.7c2.1-3.9,22.1-18.4,39.4-29.6
			c2.3-1.5,2.9-4.6,1.5-6.8s-4.6-2.9-6.8-1.5C132.1,67.4,106.7,84.7,103.8,91.9z M113,95.6L113,95.6L113,95.6z"/>
		<path class="st3" d="M41.5,50.5c1.4,0,2.8-0.6,3.7-1.7C57.9,34.1,82.8,29,83,28.9c2.7-0.5,4.4-3.1,3.9-5.8s-3.1-4.4-5.8-3.9
			c-1.2,0.2-28.4,5.8-43.4,23.1c-1.8,2.1-1.6,5.2,0.5,7C39.2,50.1,40.3,50.5,41.5,50.5z"/>
		<g>
			<g>
				<path class="st3" d="M167,132.8c-1.9-1.9-5.2-2.1-7.2-0.2c0,0-0.7,0.5-0.9,0.7l1.8,4.8l0,0c0.7,1.1,2.1,2.1,2.8,3.1l0.9-0.7
					c0,0,0.3,0.4,0.7,1c1-1,1.7-1.6,1.9-1.8C168.9,137.8,168.9,134.7,167,132.8z"/>
			</g>
			<path class="st3" d="M169.4,113.3c-1.3-2.4-4.2-3.4-6.7-2.1c-0.5,0.3-7.9,4.1-16.2,11.4c1.4,0.4,2.9,0.9,4.4,1.4l2.8-4.1l2.6,7.4
				c6-4.7,10.8-7.3,11-7.3C169.7,118.7,170.6,115.7,169.4,113.3z"/>
			<path class="st3" d="M116.7,125.4c1.7-3,3.4-6.4,4.9-10.2c1.5-2.5,14.1-22.7,38.3-32.2c2.5-1,3.8-3.9,2.8-6.4s-3.9-3.8-6.4-2.8
				c-28.9,11.3-42.9,35.8-43.5,36.8l-0.3,0.6c-8.9,22.5-22.6,26.3-23.1,26.5l-0.5,0.1c-9.2,3.2-16.3,3.1-21.2-0.2
				c-7-4.8-7.9-15.2-8-16.8c2.4-30.6,27.7-39.7,42.8-45.2c2.4-0.9,4.5-1.6,6.3-2.4c13.3-5.7,33.7-22.1,34.6-22.8
				c2.1-1.7,2.5-4.8,0.7-7c-1.7-2.1-4.8-2.5-7-0.7c-0.2,0.2-20.2,16.2-32.2,21.4c-1.5,0.7-3.5,1.4-5.7,2.2
				c-16.3,5.9-46.5,16.9-49.3,54.1v0.3v0.3c0,0.7,0.6,16.8,12.3,24.8c4.2,2.9,9.1,4.3,14.8,4.3c4.6,0,9.6-0.9,15.1-2.8
				c1-0.3,4.2-1.3,8.3-4c0.9-2.1,2.1-4.3,3.5-6.6C103.9,136.7,108.2,130.1,116.7,125.4z"/>
			<path class="st3" d="M97.3,154.2c-11.1,4.8-20.8,4.1-21.4,4c-2.7-0.3-5.1,1.7-5.4,4.5c-0.3,2.7,1.7,5.1,4.5,5.4
				c0.2,0,1.3,0.1,3,0.1c3.9,0,11.2-0.5,19.5-3.4C96.9,161.6,96.7,158,97.3,154.2z"/>
			<path class="st3" d="M140,121.1c3.5-4.7,6.3-8,7.7-8.7l0.5-0.2l17-10.5c2.3-1.4,3-4.5,1.6-6.8s-4.5-3-6.8-1.6l-16.3,10.1
				c-4.3,2.1-10.4,9.9-16.1,18.1C131.2,120.7,135.4,120.5,140,121.1z"/>
		</g>
		<path class="st3" d="M165.1,141.6c-0.4-0.6-0.7-1-0.7-1l-0.9,0.7c0.3,0.4,0.5,0.7,0.7,1.1C164.6,142.1,164.8,141.8,165.1,141.6z"
			/>
	</g>
	<path class="st3" d="M164.3,142.5L164.3,142.5c2.9,4.4,12.1,21.3-0.8,41.5c0,0-15.6,23.4-45.3,12.2l-2.8,3.7l-5.4-15.3l16.2,0.7
		l-2.8,3.7c0,0,20.5,8.7,35.5-8.6c-1.3-1.3-5.1-4.2-13.7-5c0,0-1.1-1.5,2.1-4c0,0,0.5-1.7-3-2.1c0,0,2.6-1.5,1.9-6.5
		c0,0,7.8-1.9,8.7-5.1c0,0,0.1-2.8-7.8-4.2c0,0-0.7-7.2-2.5-9.8c-0.8-1-2.7-0.3-2.7-0.3c-3.9,1.4-6.7,1.1-6.7,1.1s-5-0.1-6.8-1.1
		c0,0-1.9-0.7-2.7,0.3l0,0c-1.8,2.6-2.5,9.8-2.5,9.8c-8,1.3-7.8,4.2-7.8,4.2c1,3.2,8.7,5.1,8.7,5.1c-0.6,5,1.9,6.5,1.9,6.5
		c-3.5,0.4-3,2.1-3,2.1c3.2,2.5,2.1,4,2.1,4c-11.3,1.2-14.3,5.7-14.3,5.7c-7.6-7.7-7.5-21-7.5-21c1.7-14.1,8.6-21.5,15.5-25.4
		c12.8-6.4,25.8-0.9,25.8-0.9l-2.8,3.7l14.2,0.6h1h1.1l-1.1-3l-0.3-0.7l-4.1-11.7l-2.8,3.7c-29.7-11.2-45.3,12.2-45.3,12.2
		c-15,23.6,0,42.3,0,42.3l0,0c1.3,2.1,2.9,4,4.6,5.8l5.7,16l3.1-4.2c30.6,11.6,46.2-12.7,46.2-12.7
		C179.9,161.6,164.3,142.5,164.3,142.5z"/>
</g>
<desc>Created with Lunacy</desc>
</svg>
